<svg id="logo" xmlns="http://www.w3.org/2000/svg" xmlns:xlink="http://www.w3.org/1999/xlink" viewBox="0 0 450 450" preserveAspectRatio="xMinYMin meet">
    <path id="block-1" fill-rule="evenodd" fill="rgb(255, 255, 255)" d="M228.000,133.000 L181.000,133.000 L181.000,180.000 L133.000,180.000 L133.000,38.000 L181.000,38.000 L181.000,85.000 L228.000,85.000 L228.000,133.000 Z" style="display: inline;"></path>
    <path id="block-2" fill-rule="evenodd" fill="rgb(255, 255, 255)" d="M133.000,187.000 L181.000,187.000 L181.000,282.000 L133.000,282.000 L133.000,187.000 Z" style="display: inline;"></path>
    <path id="block-3" fill-rule="evenodd" fill="rgb(255, 255, 255)" d="M324.000,282.000 L295.000,282.000 L257.000,282.000 L196.000,282.000 L189.000,282.000 L189.000,274.999 L189.000,241.000 L189.000,234.000 L196.000,234.000 L257.000,234.000 L283.000,234.000 L283.000,193.999 L283.000,186.999 L290.000,186.999 L324.000,186.999 L331.000,186.999 L331.000,193.999 L331.000,234.000 L331.000,234.999 L331.000,245.000 L331.000,260.000 L331.000,274.999 L331.000,282.000 L324.000,282.000 Z" style="display: inline;"></path>
     <path id="block-4" fill-rule="evenodd" fill="rgb(255, 255, 255)" d="M306.218,85.437 C319.352,85.437 330.000,96.056 330.000,109.156 C330.000,122.255 319.352,132.875 306.218,132.875 C293.084,132.875 282.437,122.255 282.437,109.156 C282.437,96.056 293.084,85.437 306.218,85.437 Z" style="display: inline;"></path>
</svg>